<?xml version="1.0" encoding="UTF-8" standalone="no"?>
<svg
   xmlns:dc="http://purl.org/dc/elements/1.1/"
   xmlns:cc="http://creativecommons.org/ns#"
   xmlns:rdf="http://www.w3.org/1999/02/22-rdf-syntax-ns#"
   xmlns:svg="http://www.w3.org/2000/svg"
   xmlns="http://www.w3.org/2000/svg"
   xmlns:sodipodi="http://sodipodi.sourceforge.net/DTD/sodipodi-0.dtd"
   xmlns:inkscape="http://www.inkscape.org/namespaces/inkscape"
   version="1.1"
   id="king_profile"
   width="100%"
   height="100%"
   viewBox="-6 -6 314 1082"
   sodipodi:docname="king_profile.svg"
   inkscape:version="1.0.2 (1.0.2+r75+1)">
  <metadata
     id="metadata2161">
    <rdf:RDF>
      <cc:Work
         rdf:about="">
        <dc:format>image/svg+xml</dc:format>
        <dc:type
           rdf:resource="http://purl.org/dc/dcmitype/StillImage" />
      </cc:Work>
    </rdf:RDF>
  </metadata>
  <defs
     id="defs2159" />
  <sodipodi:namedview
     pagecolor="#ffffff"
     bordercolor="#666666"
     borderopacity="1"
     objecttolerance="10"
     gridtolerance="10"
     guidetolerance="10"
     inkscape:pageopacity="0"
     inkscape:pageshadow="2"
     inkscape:window-width="1920"
     inkscape:window-height="1015"
     id="namedview2157"
     showgrid="false"
     showguides="true"
     inkscape:guide-bbox="true"
     inkscape:zoom="2.2062777"
     inkscape:cx="111.21005"
     inkscape:cy="972.20878"
     inkscape:window-x="0"
     inkscape:window-y="0"
     inkscape:window-maximized="1"
     inkscape:current-layer="king_profile">
    <sodipodi:guide
       position="6,0"
       orientation="0,-1"
       id="guide2724" />
  </sodipodi:namedview>
  <desc
     id="desc2150">
XCircuit Version 3.9
File &quot;profiles.ps&quot; Page 4
</desc>
  <g
     stroke="black"
     id="g2154">
    <path
       d="M -4.8980979,0 V 1076 H 285.70854 v -28 h -8 c -4,0 -12,-4 -4,-12 16,-16 4,-44 -24,-52 C 185.70854,960 172,908 172,812 114,798 96,520 96,400 c 14,-2 112,-16 112,-48 0,-16 -36,-36 -68,-44 0,-12 -4,-24 -44,-28 v -20 c 16,-4 20,-12 20,-16 0,-4 -4,-12 -20,-16 L 196,32 C 200,20 192,12 180,12 H 88 C 88,4 84,0 76,0 H -4.8980979"
       fill="none"
       stroke-width="2"
       stroke-linejoin="bevel"
       stroke-linecap="round"
       id="path2152"
       sodipodi:nodetypes="ccccsscccscccsccscsc" />
  </g>
</svg>
