<?xml version="1.0" encoding="UTF-8" standalone="no"?>
<!-- Created with Inkscape (http://www.inkscape.org/) -->

<svg
   width="10mm"
   height="40mm"
   viewBox="0 0 10 40"
   version="1.1"
   id="svg1"
   inkscape:version="1.4 (e7c3feb100, 2024-10-09)"
   sodipodi:docname="pawn_profile.svg"
   xmlns:inkscape="http://www.inkscape.org/namespaces/inkscape"
   xmlns:sodipodi="http://sodipodi.sourceforge.net/DTD/sodipodi-0.dtd"
   xmlns="http://www.w3.org/2000/svg"
   xmlns:svg="http://www.w3.org/2000/svg">
  <sodipodi:namedview
     id="namedview1"
     pagecolor="#ffffff"
     bordercolor="#cccccc"
     borderopacity="1"
     inkscape:showpageshadow="0"
     inkscape:pageopacity="1"
     inkscape:pagecheckerboard="0"
     inkscape:deskcolor="#d1d1d1"
     inkscape:document-units="mm"
     inkscape:zoom="5.6568543"
     inkscape:cx="0.35355339"
     inkscape:cy="72.566833"
     inkscape:window-width="1910"
     inkscape:window-height="1052"
     inkscape:window-x="3840"
     inkscape:window-y="0"
     inkscape:window-maximized="1"
     inkscape:current-layer="layer1" />
  <defs
     id="defs1" />
  <g
     inkscape:label="Calque 1"
     inkscape:groupmode="layer"
     id="layer1">
    <path
       d="M 0,40 H 10 V 39.18946 H 9.594731 c -0.4052692,0 0,-0.405269 0,-0.405269 C 10,38.378922 10,37.568384 9.1894618,37.163115 5.9473088,35.947307 5.5420396,33.920962 5.5420396,31.489347 4.630184,31.084078 3.0091076,29.853004 2.9077903,24.888457 3.3130595,24.78714 5.3546725,23.682056 5.3546725,22.668883 c 0,-0.810538 -1.5350267,-1.390001 -2.1429304,-1.491318 -0.3039518,-0.05066 -0.594589,-0.389276 -0.3412958,-0.490594 0.9189463,-1.148288 1.724127,-1.683237 1.724127,-3.608265 0,-2.275148 -1.7510982,-4.347027 -4.5945733,-4.435885"
       fill="none"
       stroke-width="0.101317"
       stroke-linejoin="bevel"
       stroke-linecap="round"
       id="path899"
       sodipodi:nodetypes="cccsccccsscsc"
       style="fill:#000000;fill-opacity:0.546171" />
  </g>
</svg>
