<?xml version="1.0" encoding="UTF-8" standalone="no"?>
<!-- Created with Inkscape (http://www.inkscape.org/) -->

<svg
   width="10mm"
   height="40mm"
   viewBox="0 0 10 40"
   version="1.1"
   id="svg1"
   inkscape:version="1.4 (e7c3feb100, 2024-10-09)"
   sodipodi:docname="pawn_profile.svg"
   xmlns:inkscape="http://www.inkscape.org/namespaces/inkscape"
   xmlns:sodipodi="http://sodipodi.sourceforge.net/DTD/sodipodi-0.dtd"
   xmlns="http://www.w3.org/2000/svg"
   xmlns:svg="http://www.w3.org/2000/svg">
  <sodipodi:namedview
     id="namedview1"
     pagecolor="#ffffff"
     bordercolor="#cccccc"
     borderopacity="1"
     inkscape:showpageshadow="0"
     inkscape:pageopacity="1"
     inkscape:pagecheckerboard="0"
     inkscape:deskcolor="#d1d1d1"
     inkscape:document-units="mm"
     inkscape:zoom="8"
     inkscape:cx="8.125"
     inkscape:cy="105.5625"
     inkscape:window-width="1910"
     inkscape:window-height="1052"
     inkscape:window-x="3840"
     inkscape:window-y="0"
     inkscape:window-maximized="1"
     inkscape:current-layer="layer1" />
  <defs
     id="defs1" />
  <g
     inkscape:label="Calque 1"
     inkscape:groupmode="layer"
     id="layer1">
    <path
       d="M 0,9.604814 V 40 H 10 V 39.18946 H 9.594731 c -0.4052692,0 0,-0.405269 0,-0.405269 C 10,38.378922 10,37.568384 9.1894618,37.163115 5.9473088,35.947307 5.5420396,33.920962 5.5420396,31.489347 4.630184,31.084078 3.0091076,29.323837 2.9077903,24.35929 c 0.4052692,-0.101317 3.1182555,-1.17796 3.1182555,-2.191133 0,-0.810538 -2.2064,-1.418442 -2.8143037,-1.519759 -0.3039518,-0.05066 -0.2532932,-0.303952 0,-0.40527 C 4.5288669,19.635225 5.8459914,17.507562 5.8459914,15.582534 5.8459914,12.340381 3.242153,9.70613 0,9.604814"
       fill="none"
       stroke-width="0.101317"
       stroke-linejoin="bevel"
       stroke-linecap="round"
       id="path899"
       sodipodi:nodetypes="ccccsccccsscsc"
       style="fill:#000000;fill-opacity:0.546171" />
  </g>
</svg>
